<svg width="29" height="24" viewBox="0 0 29 24" fill="none" xmlns="http://www.w3.org/2000/svg">
<path d="M28.3146 9.70787C28.3146 11.5847 27.9449 13.4432 27.2267 15.1772C26.5084 16.9112 25.4557 18.4868 24.1285 19.8139C22.8014 21.1411 21.2258 22.1938 19.4918 22.9121C17.7578 23.6303 15.8993 24 14.0225 24L14.0225 9.70787H28.3146Z" fill="#DA42F2"/>
<path d="M14.2921 0C14.2921 1.87687 13.9225 3.73536 13.2042 5.46936C12.486 7.20337 11.4332 8.77892 10.1061 10.1061C8.77892 11.4332 7.20337 12.486 5.46936 13.2042C3.73536 13.9225 1.87687 14.2921 0 14.2921L6.24729e-07 0H14.2921Z" fill="#DA42F2"/>
</svg>
