<svg width="121" height="23" viewBox="0 0 121 23" fill="none" xmlns="http://www.w3.org/2000/svg">
<g clip-path="url(#clip0)">
<path d="M10.2254 0.142822H3.8926L3.88048 0.164841L3.00649 1.7569H10.2254C15.5727 1.7569 19.9103 6.09315 19.9103 11.4423C19.9103 16.7914 15.574 21.1276 10.2254 21.1276C4.87672 21.1276 0.539985 16.7909 0.539985 11.4423C0.539544 10.4305 0.698001 9.42482 1.00956 8.46217H2.85865C1.54785 11.7014 2.50677 15.4167 5.22146 17.6169C7.93615 19.8171 11.7696 19.9858 14.6671 18.0327C17.5646 16.0795 18.8462 12.4628 17.8251 9.12095C16.804 5.77911 13.7197 3.49644 10.2254 3.49635H2.05206L1.16638 5.10997H10.2254C13.0711 5.11058 15.5668 7.00968 16.326 9.75229C17.0852 12.4949 15.9213 15.4071 13.4809 16.8709C11.0405 18.3347 7.92333 17.9905 5.86113 16.0296C3.79888 14.0685 3.29839 10.9726 4.63766 8.46172H6.73252C5.33423 10.1032 5.2666 12.4965 6.56994 14.2144C7.87329 15.9323 10.1964 16.5117 12.1539 15.6071C14.1113 14.7026 15.1755 12.5578 14.7119 10.4519C14.2483 8.34601 12.3817 6.8465 10.2254 6.84764H0.211957L-0.674172 8.46217C-0.939418 9.43331 -1.07391 10.4356 -1.0741 11.4423C-1.0741 17.6825 3.98472 22.7417 10.2254 22.7417C16.466 22.7417 21.5248 17.6825 21.5248 11.4423C21.5248 5.20209 16.4655 0.142822 10.2254 0.142822ZM10.2254 8.46217C11.8713 8.46217 13.2055 9.79642 13.2055 11.4423C13.2055 13.0882 11.8713 14.4224 10.2254 14.4224C8.5795 14.4224 7.24525 13.0882 7.24525 11.4423C7.24525 9.79642 8.5795 8.46217 10.2254 8.46217ZM26.4915 11.6809C26.4915 8.54168 28.5977 6.33625 31.7561 6.33625C33.7032 6.33625 35.2926 7.19005 36.127 8.62123L34.2995 9.91266C33.723 8.99825 32.849 8.56148 31.8159 8.56148C30.1084 8.56148 28.9751 9.77474 28.9751 11.6809C28.9751 13.5682 30.1075 14.7998 31.8159 14.7998C32.8495 14.7998 33.723 14.3429 34.2995 13.4289L36.127 14.7203C35.2926 16.1708 33.7032 17.0053 31.7561 17.0053C28.5977 17.0053 26.4915 14.7998 26.4915 11.6809ZM36.4704 11.6809C36.4704 8.74033 38.5567 6.33625 41.7953 6.33625C45.0533 6.33625 47.1194 8.74033 47.1194 11.6809C47.1194 14.6017 45.0524 17.0053 41.7953 17.0053C38.5589 17.0053 36.4704 14.6012 36.4704 11.6809ZM44.6361 11.6809C44.6361 9.83315 43.543 8.54168 41.7953 8.54168C40.0471 8.54168 38.9539 9.83315 38.9539 11.6809C38.9539 13.5084 40.0467 14.7998 41.7953 14.7998C43.5435 14.7998 44.6361 13.5084 44.6361 11.6809ZM63.0296 6.61352L59.9288 16.7263H57.3108L55.1194 9.59364L52.9088 16.7263H50.2871L47.2047 6.61352H49.6096L51.7039 13.9047L53.9533 6.61352H56.2806L58.5304 13.9047L60.6051 6.61352H63.0296ZM97.088 6.61352L93.9847 16.7263H91.3667L89.1749 9.59364L86.9643 16.7263H84.348L81.2647 6.61576H83.6696L85.7639 13.907L88.0112 6.61352H90.3386L92.5884 13.9047L94.6635 6.61352H97.088ZM70.2835 6.57486V8.83964C69.9153 8.77866 69.5435 8.74548 69.1708 8.74033C67.4026 8.74033 66.4688 9.63454 66.4688 11.7402V16.7281H64.0463V6.61352H66.428V8.30311C66.9247 7.13119 68.0173 6.43556 69.408 6.43556C69.7059 6.42976 70.0022 6.47695 70.2835 6.57486ZM80.3394 6.61352V15.7129C80.3394 19.1105 78.452 20.9776 75.1141 20.9776C73.3855 20.9776 71.7961 20.4613 70.8422 19.5671L71.9353 17.7989C72.7888 18.4729 73.9018 18.8121 74.9749 18.8121C76.8427 18.8121 77.9553 17.7593 77.9553 15.7116V14.8394C77.379 15.952 76.1475 16.6274 74.6569 16.6274C72.5112 16.6274 71.1606 15.2766 71.1606 12.8128V6.61352H73.5843V12.1972C73.5843 13.747 74.2202 14.4224 75.4912 14.4224C76.9618 14.4224 77.9353 13.5286 77.9353 12.0579V6.61352H80.3394ZM97.7255 3.41592C97.7255 2.54148 98.3414 1.90564 99.2753 1.90564C100.189 1.90564 100.803 2.54148 100.803 3.41592C100.803 4.29037 100.187 4.92576 99.2753 4.92576C98.3414 4.92576 97.7255 4.28993 97.7255 3.41592ZM98.0635 6.61442H100.487V16.7272H98.0635V6.61442ZM101.707 15.078L103.018 13.548C103.812 14.4224 105.044 14.9387 106.336 14.9387C107.488 14.9387 108.124 14.5019 108.124 13.8661C108.124 13.3296 107.726 12.9921 106.713 12.7535L105.064 12.376C102.958 11.8795 102.064 10.9058 102.064 9.51499C102.064 7.64748 103.614 6.33625 106.237 6.33625C108.025 6.33625 109.514 6.95188 110.389 7.94584L109.097 9.51499C108.223 8.76009 107.23 8.40242 106.177 8.40242C105.044 8.40242 104.488 8.81984 104.488 9.43593C104.488 9.91266 104.825 10.2106 105.898 10.4487L107.647 10.8662C109.772 11.343 110.547 12.3163 110.547 13.707C110.547 15.7138 108.997 17.0053 106.316 17.0053C104.309 17.0053 102.621 16.2504 101.707 15.078ZM121.312 12.3958H113.781C114.039 14.0252 115.112 14.8992 116.761 14.8992C117.893 14.8992 118.847 14.4822 119.582 13.6275L121.032 15.0583C120.079 16.2899 118.549 17.0053 116.681 17.0053C113.463 17.0053 111.317 14.8992 111.317 11.7204C111.317 8.58123 113.384 6.33625 116.443 6.33625C119.383 6.33625 121.37 8.38262 121.37 11.462C121.37 11.7742 121.35 12.086 121.312 12.3958ZM113.781 10.7476H118.948C118.829 9.25707 117.915 8.44282 116.465 8.44282C114.974 8.44237 114.04 9.29662 113.781 10.7476Z" fill="#011B33"/>
</g>
<defs>
<clipPath id="clip0">
<rect width="120.301" height="22.8571" fill="white" transform="translate(0 0.142822)"/>
</clipPath>
</defs>
</svg>
