<svg width="106" height="23" viewBox="0 0 106 23" fill="none" xmlns="http://www.w3.org/2000/svg">
<g clip-path="url(#clip0)">
<path d="M32.3639 3.28503H26.7982C26.6209 3.28503 26.4656 3.44025 26.4656 3.61763V16.1675C26.4656 16.3449 26.6209 16.5001 26.7982 16.5001H32.3861C36.7765 16.5001 39.6147 13.9059 39.6147 9.89258C39.6147 5.8571 36.7765 3.28503 32.3639 3.28503ZM32.3639 12.9968H30.4569V6.76619H32.3861C34.3595 6.76619 35.5569 7.91918 35.5569 9.87039C35.5569 11.4225 34.4704 12.9968 32.3639 12.9968Z" fill="#011B33"/>
<path d="M64.3162 6.67749C62.7862 6.67749 61.5223 7.52006 60.968 8.36263C60.5688 7.25398 59.6376 6.67749 58.2184 6.67749C56.6441 6.67749 55.4689 7.47572 55.0476 8.00787V7.25398C55.0476 7.0766 54.8924 6.92139 54.715 6.92139H51.8102C51.6328 6.92139 51.4776 7.0766 51.4776 7.25398V16.1453C51.4776 16.3227 51.6328 16.4779 51.8102 16.4779H54.715C54.8924 16.4779 55.0476 16.3227 55.0476 16.1453V10.5799C55.2471 10.336 55.6906 9.82605 56.4889 9.82605C57.1985 9.82605 57.5754 10.203 57.5754 10.8904V16.1453C57.5754 16.3227 57.7306 16.4779 57.908 16.4779H60.8128C60.9902 16.4779 61.1454 16.3227 61.1454 16.1453V10.5799C61.3449 10.336 61.7884 9.82605 62.6088 9.82605C63.2962 9.82605 63.6954 10.2252 63.6954 10.8904V16.1453C63.6954 16.3227 63.8506 16.4779 64.028 16.4779H66.9327C67.1101 16.4779 67.2653 16.3227 67.2653 16.1453V9.5378C67.2875 7.69744 66.2232 6.67749 64.3162 6.67749Z" fill="#011B33"/>
<path d="M71.9663 6.92139H69.0615C68.8842 6.92139 68.7289 7.0766 68.7289 7.25398V16.1453C68.7289 16.3227 68.8842 16.4779 69.0615 16.4779H71.9663C72.1437 16.4779 72.2989 16.3227 72.2989 16.1453V7.25398C72.2989 7.0766 72.1437 6.92139 71.9663 6.92139Z" fill="#011B33"/>
<path d="M70.5916 2.2207C69.4829 2.2207 68.5959 3.10762 68.5959 4.21627C68.5959 5.32492 69.5051 6.21183 70.5916 6.21183C71.7003 6.21183 72.5872 5.32492 72.5872 4.21627C72.6094 3.12979 71.7003 2.2207 70.5916 2.2207Z" fill="#011B33"/>
<path d="M80.6582 6.67749C78.8178 6.67749 77.7978 7.49789 77.3765 8.00787V7.25398C77.3765 7.0766 77.2213 6.92139 77.0439 6.92139H74.1391C73.9617 6.92139 73.8065 7.0766 73.8065 7.25398V16.1453C73.8065 16.3227 73.9617 16.4779 74.1391 16.4779H77.0439C77.2213 16.4779 77.3765 16.3227 77.3765 16.1453V10.5799C77.5982 10.3138 78.0417 9.82604 78.9065 9.82604C79.8378 9.82604 80.3034 10.2917 80.3034 11.2008V16.1675C80.3034 16.3449 80.4587 16.5001 80.636 16.5001H83.5408C83.7182 16.5001 83.8734 16.3449 83.8734 16.1675V9.71518C83.8512 7.80831 82.6539 6.67749 80.6582 6.67749Z" fill="#011B33"/>
<path d="M45.3799 6.63318C42.586 6.63318 40.3243 8.89482 40.3243 11.6886C40.3243 14.4824 42.586 16.7441 45.3799 16.7441C48.1738 16.7441 50.4355 14.4824 50.4355 11.6886C50.4133 8.89482 48.1516 6.63318 45.3799 6.63318ZM45.3799 13.3516C44.4264 13.3516 43.6503 12.5755 43.6503 11.6221C43.6503 10.6687 44.4264 9.8926 45.3799 9.8926C46.3334 9.8926 47.1094 10.6687 47.1094 11.6221C47.0873 12.5755 46.3334 13.3516 45.3799 13.3516Z" fill="#011B33"/>
<path d="M89.9491 6.65527C87.1552 6.65527 84.8935 8.91691 84.8935 11.7107C84.8935 14.5045 87.1552 16.7662 89.9491 16.7662C92.743 16.7662 95.0048 14.5045 95.0048 11.7107C95.0048 8.91691 92.743 6.65527 89.9491 6.65527ZM89.9491 13.3515C88.9956 13.3515 88.2196 12.5754 88.2196 11.622C88.2196 10.6686 88.9956 9.89253 89.9491 9.89253C90.9026 9.89253 91.6787 10.6686 91.6787 11.622C91.6787 12.5754 90.9026 13.3515 89.9491 13.3515Z" fill="#011B33"/>
<path d="M97.7986 3.8394C97.7986 3.81723 97.7986 3.81723 97.7986 3.8394C97.7986 3.81723 97.7986 3.81723 97.7986 3.81723C97.5769 2.81945 96.4904 2.10992 95.426 2.33165C94.3395 2.55338 93.6299 3.55116 93.8517 4.57111C94.0291 5.41369 94.7608 5.99018 95.6256 6.03452C95.5812 6.36712 95.2708 6.67755 95.0269 6.83273C94.8495 6.92146 94.9604 7.09883 94.9604 7.09883L95.1821 7.43142C95.2486 7.5423 95.3373 7.6088 95.4482 7.5423C97.6434 6.61102 98.0203 4.72632 97.7986 3.8394Z" fill="#011B33"/>
<path d="M100.371 9.75958C100.371 9.40481 100.814 9.2496 101.413 9.2496C102.566 9.2496 103.231 9.58219 103.963 10.07C104.03 10.1143 104.14 10.1365 104.229 10.1143C104.318 10.0922 104.406 10.0256 104.451 9.95913L105.426 8.25182C105.515 8.0966 105.471 7.89705 105.316 7.80835C104.517 7.32055 103.342 6.69971 101.28 6.69971C98.3308 6.69971 96.7565 8.09661 97.0226 10.0922C97.4882 13.5955 102.943 12.3982 102.854 13.5955C102.832 13.8616 102.344 14.0833 101.524 14.0833C100.437 14.0833 99.2178 13.5512 98.4417 13.0633C98.3752 13.019 98.2643 12.9968 98.1756 13.019C98.0869 13.0412 98.0204 13.1077 97.9761 13.1742L96.8452 15.0589C96.7565 15.2141 96.8008 15.4137 96.9561 15.5024C98.0426 16.2341 99.7943 16.7219 101.324 16.7219C104.273 16.7219 105.981 15.458 105.981 13.3738C105.936 9.51567 100.393 10.713 100.371 9.75958Z" fill="#011B33"/>
<path d="M22.3341 6.76715L16.1176 0.544938C15.8639 0.290969 15.5044 0.142822 15.145 0.142822C14.7644 0.142822 14.4261 0.290969 14.1723 0.544938L8.9497 5.7513L0.280539 14.4285C-0.269213 14.9788 -0.269213 15.8465 0.280539 16.3968L6.47581 22.5978C6.72956 22.8518 7.089 23 7.44844 23C7.82904 23 8.16736 22.8518 8.42108 22.5978L16.181 14.8307L22.2917 8.71425C22.8626 8.18517 22.8626 7.29628 22.3341 6.76715Z" fill="white"/>
<path d="M21.8901 7.19049L15.6736 0.989434C15.3776 0.693138 14.8913 0.693138 14.5953 0.989434L7.89252 7.69841L15.1873 15L21.8901 8.29104C22.1861 7.97357 22.1861 7.50795 21.8901 7.19049ZM16.4348 8.98943C16.0754 9.34924 15.6313 9.51855 15.1662 9.51855C14.701 9.51855 14.2569 9.34924 13.8975 8.98943C13.5381 8.62965 13.3689 8.18519 13.3689 7.71961C13.3689 7.25399 13.5381 6.78837 13.8975 6.44975C14.2569 6.08998 14.701 5.92067 15.1662 5.92067C15.6313 5.92067 16.0754 6.08998 16.4348 6.44975C16.7943 6.80952 16.9634 7.25399 16.9634 7.71961C16.9634 8.18519 16.7731 8.65081 16.4348 8.98943Z" fill="#011B33"/>
<path d="M0.745758 14.8518C0.449738 15.1481 0.449738 15.6349 0.745758 15.9312L6.94103 22.1534C7.08906 22.3016 7.27936 22.3862 7.49081 22.3862C7.6811 22.3862 7.89251 22.3016 8.04054 22.1534L14.7433 15.4444L7.4485 8.14282L0.745758 14.8518ZM6.11643 16.6508C5.75695 16.9894 5.31294 17.1799 4.84773 17.1799C4.38258 17.1799 3.9174 17.0106 3.57909 16.6508C3.21964 16.291 3.05049 15.8465 3.05049 15.3809C3.05049 14.9153 3.21964 14.4497 3.57909 14.1111C3.93855 13.7513 4.38258 13.582 4.84773 13.582C5.31294 13.582 5.7781 13.7513 6.11643 14.1111C6.47587 14.4709 6.64501 14.9153 6.64501 15.3809C6.64501 15.8465 6.45471 16.291 6.11643 16.6508ZM8.84403 14.1746C9.20347 13.8148 9.64752 13.6455 10.1127 13.6455C10.5779 13.6455 11.043 13.8148 11.3813 14.1746C11.7408 14.5343 11.91 14.9788 11.91 15.4444C11.91 15.91 11.7408 16.3545 11.3813 16.7143C11.0219 17.074 10.5779 17.2433 10.1127 17.2433C9.64752 17.2433 9.20347 17.074 8.84403 16.7143C8.48455 16.3545 8.31541 15.91 8.31541 15.4444C8.31541 15 8.48455 14.5343 8.84403 14.1746Z" fill="#011B33"/>
</g>
<defs>
<clipPath id="clip0">
<rect width="105.495" height="22.8571" fill="white" transform="translate(0.315796 0.142822)"/>
</clipPath>
</defs>
</svg>
