<svg width="121" height="23" viewBox="0 0 121 23" fill="none" xmlns="http://www.w3.org/2000/svg">
<g clip-path="url(#clip0)">
<path d="M32.4926 18.6791V23H29.7826V8.93368H32.4926V9.60665C33.2996 9.08189 34.2399 8.79877 35.2025 8.79065C38.2799 8.79065 40.5427 11.2372 40.5427 14.1519C40.5427 17.0666 38.3009 19.5131 35.2025 19.5131C34.2358 19.5147 33.2911 19.224 32.4926 18.6791ZM32.4926 12.8692V15.3563C32.7063 15.8115 33.0386 16.2008 33.4544 16.4835C33.8703 16.7662 34.3545 16.9319 34.8564 16.9633C35.3583 16.9946 35.8594 16.8905 36.3072 16.6617C36.755 16.433 37.1331 16.0881 37.4019 15.663C37.6707 15.238 37.8202 14.7486 37.8349 14.2459C37.8496 13.7433 37.7289 13.2459 37.4855 12.8059C37.242 12.3659 36.8847 11.9995 36.4511 11.7449C36.0174 11.4904 35.5232 11.3571 35.0204 11.3591C34.5005 11.3518 33.9888 11.4891 33.5424 11.7558C33.096 12.0224 32.7325 12.4079 32.4926 12.8692Z" fill="#011B33"/>
<path d="M42.0106 6.09871C42.0017 5.89358 42.0349 5.6888 42.1081 5.49697C42.1813 5.30514 42.293 5.13031 42.4363 4.98323C42.5795 4.83615 42.7514 4.71994 42.9412 4.64172C43.1311 4.56351 43.3349 4.52496 43.5402 4.52843C43.7483 4.52482 43.9551 4.56283 44.1483 4.64021C44.3415 4.7176 44.5174 4.83282 44.6655 4.9791C44.8136 5.12537 44.931 5.29976 45.0107 5.49203C45.0905 5.68429 45.1311 5.89056 45.13 6.09871C45.1257 6.51735 44.9562 6.91734 44.6585 7.21168C44.3607 7.50603 43.9589 7.67092 43.5402 7.6705C43.336 7.66955 43.1341 7.62794 42.9462 7.54809C42.7582 7.46823 42.5881 7.35174 42.4457 7.20542C42.3033 7.0591 42.1915 6.88587 42.1168 6.69585C42.0421 6.50584 42.006 6.30284 42.0106 6.09871ZM42.1747 8.93365H44.9268V19.3505H42.1747V8.93365Z" fill="#011B33"/>
<path d="M46.5558 14.1127C46.5503 13.4116 46.685 12.7164 46.952 12.0681C47.219 11.4198 47.613 10.8315 48.1106 10.3376C48.6083 9.8437 49.1997 9.4543 49.85 9.19225C50.5003 8.93021 51.1964 8.80081 51.8975 8.81167C52.856 8.81215 53.7995 9.05009 54.6436 9.50422V8.93361H57.3355V18.7588C57.3355 21.4688 54.9899 22.9382 52.0556 22.9382C50.139 22.9382 48.3038 22.3676 47.1008 21.4326L48.2225 19.4965C49.3657 20.2289 50.6979 20.6114 52.0556 20.5971C53.9511 20.5971 54.5427 19.8443 54.624 18.6203C53.8075 19.1425 52.8607 19.4248 51.8915 19.4348C48.772 19.4318 46.5558 17.1087 46.5558 14.1127ZM54.6436 15.2735V12.9504C54.4159 12.4657 54.0557 12.0553 53.6047 11.7665C53.1537 11.4777 52.6302 11.3224 52.0947 11.3184C51.7249 11.3148 51.3581 11.3844 51.0152 11.523C50.6724 11.6617 50.3604 11.8668 50.0971 12.1265C49.8338 12.3861 49.6244 12.6953 49.4809 13.0362C49.3375 13.377 49.2629 13.7429 49.2613 14.1127C49.2613 15.7221 50.4838 16.8437 52.0751 16.8437C52.6091 16.8576 53.1357 16.7168 53.5914 16.4382C54.0472 16.1596 54.4126 15.7551 54.6436 15.2735Z" fill="#011B33"/>
<path d="M58.969 14.1127C58.9635 13.4116 59.0982 12.7164 59.3652 12.0681C59.6323 11.4198 60.0262 10.8315 60.5238 10.3376C61.0215 9.8437 61.6129 9.4543 62.2632 9.19225C62.9135 8.93021 63.6096 8.80081 64.3107 8.81167C65.2712 8.81134 66.2168 9.0493 67.0628 9.50422V8.93361H69.7532V18.7588C69.7532 21.4688 67.4091 22.9382 64.4748 22.9382C62.5582 22.9382 60.723 22.3676 59.5201 21.4326L60.6417 19.4965C61.7848 20.2291 63.1171 20.6117 64.4748 20.5971C66.3703 20.5971 66.9619 19.8443 67.0432 18.6203C66.2266 19.1423 65.2798 19.4245 64.3107 19.4348C61.1912 19.4318 58.969 17.1087 58.969 14.1127ZM67.0628 15.2735V12.9504C66.835 12.4658 66.4748 12.0555 66.0238 11.7667C65.5728 11.478 65.0494 11.3226 64.5139 11.3184C64.1441 11.3148 63.7773 11.3844 63.4345 11.523C63.0916 11.6617 62.7796 11.8668 62.5163 12.1265C62.253 12.3861 62.0436 12.6953 61.9002 13.0362C61.7567 13.377 61.6821 13.7429 61.6805 14.1127C61.6805 15.7221 62.903 16.8437 64.4944 16.8437C65.0283 16.8575 65.5548 16.7165 66.0105 16.4379C66.4662 16.1593 66.8316 15.7549 67.0628 15.2735Z" fill="#011B33"/>
<path d="M73.7068 8.93372L76.4393 15.8848L79.2517 8.93372H82.1122L76.1126 23H73.5652L75.0708 19.2497L70.6912 8.93372H73.7068Z" fill="#011B33"/>
<path d="M81.5928 8.93372H84.5075L87.1633 15.9676L89.7934 8.93372H92.654L88.4746 19.3506H85.733L81.5928 8.93372Z" fill="#011B33"/>
<path d="M92.8467 14.0706C92.8467 11.1363 94.9454 8.70935 98.2275 8.70935C101.266 8.70935 103.574 10.9933 103.629 13.9938C103.65 14.2518 103.65 14.5111 103.629 14.7692H95.4151C95.4964 16.2371 96.9026 17.1946 98.4112 17.1946C99.6547 17.1946 100.388 16.8483 101.245 16.1407L102.734 17.711C101.529 18.9741 100.325 19.5658 98.4112 19.5658C94.8852 19.5553 92.8467 16.9251 92.8467 14.0706ZM95.5567 12.827H100.817C100.552 11.8499 99.6126 10.9933 98.1868 10.9933C96.5353 10.9933 95.8427 11.8288 95.5567 12.827Z" fill="#011B33"/>
<path d="M104.198 18.2304L105.531 16.0685C106.727 16.8656 108.129 17.2977 109.566 17.3121C110.933 17.3121 111.625 16.9658 111.625 16.3756C111.625 15.9872 111.299 15.7026 110.606 15.5596L107.746 14.9484C105.647 14.4967 104.688 13.5015 104.688 11.871C104.688 10.1382 106.156 8.68982 109.194 8.68982C111.028 8.68982 112.657 9.22128 113.78 9.91383L112.536 11.993C111.619 11.5037 110.397 10.9737 109.111 10.9737C107.95 10.9737 107.277 11.2598 107.277 11.7882C107.277 12.136 107.523 12.3603 108.194 12.4823L110.603 12.9339C113.212 13.4428 114.216 14.6051 114.216 16.1754C114.216 18.4337 111.958 19.6201 109.486 19.6201C107.629 19.6559 105.798 19.1748 104.198 18.2304Z" fill="#011B33"/>
<path d="M114.758 8.93366H116.308V6.05958L119.018 4.30713V8.93366H120.607V11.2989H119.019V19.352H116.309V11.2989H114.757V8.93366H114.758Z" fill="#011B33"/>
<path d="M22.9967 10.6093C22.9515 9.94811 22.8431 9.29273 22.673 8.65214C21.8976 5.79161 20.2641 3.54083 17.7739 1.93441C16.2055 0.914335 14.4038 0.308792 12.5377 0.174434C11.7536 0.117168 10.9658 0.138351 10.186 0.237667C9.36446 0.346406 8.55691 0.542742 7.77714 0.823323C5.70071 1.57233 3.88849 2.91191 2.56337 4.67731C1.23825 6.4427 0.458036 8.55692 0.318685 10.7599C0.293091 11.1649 0.293091 11.5729 0.293091 11.9794V21.8618C0.293091 22.1185 0.395083 22.3648 0.57663 22.5463C0.758177 22.7278 1.00441 22.8298 1.26115 22.8298H5.07921C5.31815 22.8284 5.54824 22.7393 5.72584 22.5794C5.90344 22.4196 6.01621 22.2001 6.04276 21.9626C6.06788 21.8699 6.08103 21.7742 6.0819 21.6781V21.4493C6.07965 21.4318 6.07965 21.4141 6.0819 21.3966V21.371C6.10794 21.3779 6.13246 21.3896 6.15417 21.4056C7.58229 22.1953 9.16394 22.6678 10.7912 22.7907C11.443 22.8389 12.0977 22.8324 12.7484 22.7711C14.2803 22.63 15.767 22.1768 17.117 21.4394C18.4671 20.702 19.6518 19.696 20.5983 18.4833C21.9475 16.7862 22.773 14.7328 22.9741 12.5741C23.0422 11.9213 23.0497 11.2636 22.9967 10.6093ZM13.6924 16.9236C13.6857 16.9584 13.6669 16.9897 13.6394 17.012C13.6118 17.0343 13.5773 17.0462 13.5419 17.0455H9.77801C9.74257 17.0462 9.70805 17.0343 9.68051 17.012C9.65297 16.9897 9.63418 16.9584 9.62745 16.9236V16.8995V16.7595C9.62662 16.5867 9.64582 16.4144 9.68466 16.2461C9.70875 16.1889 9.72381 16.1211 9.7479 16.0579C9.77198 15.9947 9.79607 15.936 9.82016 15.8742C9.84425 15.8125 9.88339 15.7568 9.91652 15.7041L9.97072 15.6228C10.0061 15.5702 10.0448 15.5199 10.0866 15.4723C10.1303 15.4181 10.174 15.3714 10.2176 15.3217C10.4441 15.0989 10.7194 14.9319 11.0216 14.8339C10.7613 14.6922 10.5555 14.4678 10.4367 14.1962C10.3179 13.9247 10.2928 13.6213 10.3655 13.3339C10.4381 13.0465 10.6043 12.7915 10.8378 12.6089C11.0714 12.4264 11.359 12.3267 11.6554 12.3257C12.0093 12.3283 12.3481 12.4694 12.5994 12.7186C12.7449 12.865 12.8544 13.0431 12.9193 13.239C12.9843 13.4349 13.0029 13.6432 12.9737 13.8475C12.9445 14.0518 12.8683 14.2465 12.7511 14.4164C12.6339 14.5862 12.4789 14.7266 12.2983 14.8264C12.7048 14.9604 13.0586 15.2195 13.309 15.5667C13.5594 15.9139 13.6936 16.3314 13.6924 16.7595C13.6924 16.8137 13.6924 16.8724 13.6924 16.9236ZM20.1813 8.72441H3.14459C3.11265 8.72419 3.08123 8.7164 3.05289 8.70166C3.02456 8.68693 3.00013 8.66568 2.98161 8.63967C2.96309 8.61365 2.95101 8.58361 2.94636 8.55202C2.94172 8.52042 2.94464 8.48817 2.95489 8.45793C3.59059 6.65639 4.76943 5.09639 6.32892 3.99294C7.88842 2.88949 9.75179 2.29693 11.6622 2.29693C13.5726 2.29693 15.436 2.88949 16.9955 3.99294C18.555 5.09639 19.7338 6.65639 20.3695 8.45793C20.3797 8.48806 20.3826 8.52017 20.3781 8.55165C20.3735 8.58313 20.3616 8.61308 20.3432 8.63907C20.3249 8.66505 20.3006 8.68633 20.2725 8.70116C20.2444 8.71599 20.2131 8.72396 20.1813 8.72441Z" fill="#011B33"/>
</g>
<defs>
<clipPath id="clip0">
<rect width="120.301" height="22.8571" fill="white" transform="translate(0.300781 0.142822)"/>
</clipPath>
</defs>
</svg>
